<mxfile host="app.diagrams.net" modified="2021-04-24T21:23:16.737Z" agent="5.0 (Windows NT 10.0; Win64; x64) AppleWebKit/537.36 (KHTML, like Gecko) Chrome/90.0.4430.85 Safari/537.36" etag="MNEtUP1NVId04HSjtc8l" version="14.6.6" type="github">
  <diagram id="LiDV-n0v9y0-zee6HtvB" name="Page-1">
    <mxGraphModel dx="1666" dy="2699" grid="1" gridSize="10" guides="1" tooltips="1" connect="1" arrows="1" fold="1" page="1" pageScale="1" pageWidth="827" pageHeight="1169" math="0" shadow="0">
      <root>
        <mxCell id="0" />
        <mxCell id="1" parent="0" />
        <mxCell id="Irn_uy4zuBTAPK6WRNLf-30" value="" style="shape=folder;fontStyle=1;spacingTop=10;tabWidth=130;tabHeight=30;tabPosition=left;html=1;strokeColor=#666666;fontColor=#333333;fillColor=none;" parent="1" vertex="1">
          <mxGeometry x="-640" y="-940" width="1050" height="1100" as="geometry" />
        </mxCell>
        <mxCell id="Irn_uy4zuBTAPK6WRNLf-67" value="" style="group" parent="1" vertex="1" connectable="0">
          <mxGeometry x="-640" y="-1240" width="1050" height="280" as="geometry" />
        </mxCell>
        <mxCell id="Irn_uy4zuBTAPK6WRNLf-52" value="" style="shape=folder;fontStyle=1;spacingTop=10;tabWidth=120;tabHeight=20;tabPosition=left;html=1;fillColor=none;" parent="Irn_uy4zuBTAPK6WRNLf-67" vertex="1">
          <mxGeometry width="1050" height="280" as="geometry" />
        </mxCell>
        <mxCell id="Irn_uy4zuBTAPK6WRNLf-58" value="Presentation Layer" style="text;align=center;fontStyle=1;verticalAlign=middle;spacingLeft=3;spacingRight=3;strokeColor=none;rotatable=0;points=[[0,0.5],[1,0.5]];portConstraint=eastwest;fillColor=none;" parent="Irn_uy4zuBTAPK6WRNLf-67" vertex="1">
          <mxGeometry x="19.626168224299064" width="78.04054054054053" height="20" as="geometry" />
        </mxCell>
        <mxCell id="Irn_uy4zuBTAPK6WRNLf-148" value="1" style="text;html=1;strokeColor=none;fillColor=none;align=center;verticalAlign=middle;whiteSpace=wrap;rounded=0;" parent="Irn_uy4zuBTAPK6WRNLf-67" vertex="1">
          <mxGeometry x="558.3445945945946" y="151" width="21.283783783783782" height="10" as="geometry" />
        </mxCell>
        <mxCell id="Irn_uy4zuBTAPK6WRNLf-62" value="" style="group" parent="1" vertex="1" connectable="0">
          <mxGeometry x="-500" y="-890" width="700" height="150" as="geometry" />
        </mxCell>
        <mxCell id="Irn_uy4zuBTAPK6WRNLf-31" value="Application Facade" style="text;html=1;align=center;verticalAlign=middle;resizable=0;points=[];autosize=1;" parent="Irn_uy4zuBTAPK6WRNLf-62" vertex="1">
          <mxGeometry width="120" height="20" as="geometry" />
        </mxCell>
        <mxCell id="Irn_uy4zuBTAPK6WRNLf-61" value="" style="shape=folder;fontStyle=1;spacingTop=10;tabWidth=130;tabHeight=20;tabPosition=left;html=1;fillColor=none;" parent="Irn_uy4zuBTAPK6WRNLf-62" vertex="1">
          <mxGeometry width="700" height="150" as="geometry" />
        </mxCell>
        <mxCell id="p6ftJrB2vqRsMUstC1pW-17" value="Response&lt;T&gt;" style="swimlane;fontStyle=1;align=center;verticalAlign=top;childLayout=stackLayout;horizontal=1;startSize=26;horizontalStack=0;resizeParent=1;resizeParentMax=0;resizeLast=0;collapsible=1;marginBottom=0;" parent="Irn_uy4zuBTAPK6WRNLf-62" vertex="1">
          <mxGeometry x="20" y="40" width="160" height="78" as="geometry" />
        </mxCell>
        <mxCell id="p6ftJrB2vqRsMUstC1pW-18" value="- errorMessage: string" style="text;strokeColor=none;fillColor=none;align=left;verticalAlign=top;spacingLeft=4;spacingRight=4;overflow=hidden;rotatable=0;points=[[0,0.5],[1,0.5]];portConstraint=eastwest;" parent="p6ftJrB2vqRsMUstC1pW-17" vertex="1">
          <mxGeometry y="26" width="160" height="26" as="geometry" />
        </mxCell>
        <mxCell id="p6ftJrB2vqRsMUstC1pW-21" value="- value: T" style="text;strokeColor=none;fillColor=none;align=left;verticalAlign=top;spacingLeft=4;spacingRight=4;overflow=hidden;rotatable=0;points=[[0,0.5],[1,0.5]];portConstraint=eastwest;" parent="p6ftJrB2vqRsMUstC1pW-17" vertex="1">
          <mxGeometry y="52" width="160" height="26" as="geometry" />
        </mxCell>
        <mxCell id="57GskC2OUnDVnmpbbQjz-25" value="Item" style="swimlane;fontStyle=0;childLayout=stackLayout;horizontal=1;startSize=26;fillColor=none;horizontalStack=0;resizeParent=1;resizeParentMax=0;resizeLast=0;collapsible=1;marginBottom=0;" parent="1" vertex="1">
          <mxGeometry x="-337" y="-50" width="140" height="104" as="geometry" />
        </mxCell>
        <mxCell id="57GskC2OUnDVnmpbbQjz-27" value="- id: int" style="text;strokeColor=none;fillColor=none;align=left;verticalAlign=top;spacingLeft=4;spacingRight=4;overflow=hidden;rotatable=0;points=[[0,0.5],[1,0.5]];portConstraint=eastwest;" parent="57GskC2OUnDVnmpbbQjz-25" vertex="1">
          <mxGeometry y="26" width="140" height="26" as="geometry" />
        </mxCell>
        <mxCell id="57GskC2OUnDVnmpbbQjz-28" value="- name: string" style="text;strokeColor=none;fillColor=none;align=left;verticalAlign=top;spacingLeft=4;spacingRight=4;overflow=hidden;rotatable=0;points=[[0,0.5],[1,0.5]];portConstraint=eastwest;" parent="57GskC2OUnDVnmpbbQjz-25" vertex="1">
          <mxGeometry y="52" width="140" height="26" as="geometry" />
        </mxCell>
        <mxCell id="fNSRjTEc3kslWwvqGJq8-1" value="- price: double" style="text;strokeColor=none;fillColor=none;align=left;verticalAlign=top;spacingLeft=4;spacingRight=4;overflow=hidden;rotatable=0;points=[[0,0.5],[1,0.5]];portConstraint=eastwest;" parent="57GskC2OUnDVnmpbbQjz-25" vertex="1">
          <mxGeometry y="78" width="140" height="26" as="geometry" />
        </mxCell>
        <mxCell id="57GskC2OUnDVnmpbbQjz-41" value="Order" style="swimlane;fontStyle=0;childLayout=stackLayout;horizontal=1;startSize=26;fillColor=none;horizontalStack=0;resizeParent=1;resizeParentMax=0;resizeLast=0;collapsible=1;marginBottom=0;" parent="1" vertex="1">
          <mxGeometry x="-550" y="-330" width="170" height="130" as="geometry" />
        </mxCell>
        <mxCell id="57GskC2OUnDVnmpbbQjz-42" value="- id: int" style="text;strokeColor=none;fillColor=none;align=left;verticalAlign=top;spacingLeft=4;spacingRight=4;overflow=hidden;rotatable=0;points=[[0,0.5],[1,0.5]];portConstraint=eastwest;" parent="57GskC2OUnDVnmpbbQjz-41" vertex="1">
          <mxGeometry y="26" width="170" height="26" as="geometry" />
        </mxCell>
        <mxCell id="AIavqgSetf2zbh8c5ljh-1" value="- status:Status" style="text;strokeColor=none;fillColor=none;align=left;verticalAlign=top;spacingLeft=4;spacingRight=4;overflow=hidden;rotatable=0;points=[[0,0.5],[1,0.5]];portConstraint=eastwest;" parent="57GskC2OUnDVnmpbbQjz-41" vertex="1">
          <mxGeometry y="52" width="170" height="26" as="geometry" />
        </mxCell>
        <mxCell id="AIavqgSetf2zbh8c5ljh-2" value="- placementDate: LocalDate" style="text;strokeColor=none;fillColor=none;align=left;verticalAlign=top;spacingLeft=4;spacingRight=4;overflow=hidden;rotatable=0;points=[[0,0.5],[1,0.5]];portConstraint=eastwest;" parent="57GskC2OUnDVnmpbbQjz-41" vertex="1">
          <mxGeometry y="78" width="170" height="26" as="geometry" />
        </mxCell>
        <mxCell id="AIavqgSetf2zbh8c5ljh-3" value="- placementDate: LocalDate" style="text;strokeColor=none;fillColor=none;align=left;verticalAlign=top;spacingLeft=4;spacingRight=4;overflow=hidden;rotatable=0;points=[[0,0.5],[1,0.5]];portConstraint=eastwest;" parent="57GskC2OUnDVnmpbbQjz-41" vertex="1">
          <mxGeometry y="104" width="170" height="26" as="geometry" />
        </mxCell>
        <mxCell id="T4Kb6JY-onlQXOTISOH4-13" value="QuantityReport" style="swimlane;fontStyle=0;childLayout=stackLayout;horizontal=1;startSize=26;fillColor=none;horizontalStack=0;resizeParent=1;resizeParentMax=0;resizeLast=0;collapsible=1;marginBottom=0;" parent="1" vertex="1">
          <mxGeometry x="-77" y="28" width="320" height="52" as="geometry" />
        </mxCell>
        <mxCell id="T4Kb6JY-onlQXOTISOH4-14" value="- Discounts: map&lt;int, map&lt;int, double&gt;&gt;" style="text;strokeColor=none;fillColor=none;align=left;verticalAlign=top;spacingLeft=4;spacingRight=4;overflow=hidden;rotatable=0;points=[[0,0.5],[1,0.5]];portConstraint=eastwest;" parent="T4Kb6JY-onlQXOTISOH4-13" vertex="1">
          <mxGeometry y="26" width="320" height="26" as="geometry" />
        </mxCell>
        <mxCell id="p6ftJrB2vqRsMUstC1pW-50" style="edgeStyle=elbowEdgeStyle;rounded=0;orthogonalLoop=1;jettySize=auto;elbow=vertical;html=1;exitX=0.75;exitY=0;exitDx=0;exitDy=0;entryX=0;entryY=0.5;entryDx=0;entryDy=0;" parent="1" source="T4Kb6JY-onlQXOTISOH4-32" target="p6ftJrB2vqRsMUstC1pW-42" edge="1">
          <mxGeometry relative="1" as="geometry">
            <Array as="points">
              <mxPoint x="380" y="-771" />
            </Array>
          </mxGeometry>
        </mxCell>
        <mxCell id="T4Kb6JY-onlQXOTISOH4-32" value="SupplierCard" style="swimlane;fontStyle=0;childLayout=stackLayout;horizontal=1;startSize=26;fillColor=none;horizontalStack=0;resizeParent=1;resizeParentMax=0;resizeLast=0;collapsible=1;marginBottom=0;" parent="1" vertex="1">
          <mxGeometry x="120" y="-405" width="220" height="208" as="geometry" />
        </mxCell>
        <mxCell id="T4Kb6JY-onlQXOTISOH4-33" value="- name: string" style="text;strokeColor=none;fillColor=none;align=left;verticalAlign=top;spacingLeft=4;spacingRight=4;overflow=hidden;rotatable=0;points=[[0,0.5],[1,0.5]];portConstraint=eastwest;" parent="T4Kb6JY-onlQXOTISOH4-32" vertex="1">
          <mxGeometry y="26" width="220" height="26" as="geometry" />
        </mxCell>
        <mxCell id="p6ftJrB2vqRsMUstC1pW-11" value="- manifactur: string" style="text;strokeColor=none;fillColor=none;align=left;verticalAlign=top;spacingLeft=4;spacingRight=4;overflow=hidden;rotatable=0;points=[[0,0.5],[1,0.5]];portConstraint=eastwest;" parent="T4Kb6JY-onlQXOTISOH4-32" vertex="1">
          <mxGeometry y="52" width="220" height="26" as="geometry" />
        </mxCell>
        <mxCell id="T4Kb6JY-onlQXOTISOH4-34" value="- company_id: int" style="text;strokeColor=none;fillColor=none;align=left;verticalAlign=top;spacingLeft=4;spacingRight=4;overflow=hidden;rotatable=0;points=[[0,0.5],[1,0.5]];portConstraint=eastwest;" parent="T4Kb6JY-onlQXOTISOH4-32" vertex="1">
          <mxGeometry y="78" width="220" height="26" as="geometry" />
        </mxCell>
        <mxCell id="p6ftJrB2vqRsMUstC1pW-13" value="- bankAccount: int" style="text;strokeColor=none;fillColor=none;align=left;verticalAlign=top;spacingLeft=4;spacingRight=4;overflow=hidden;rotatable=0;points=[[0,0.5],[1,0.5]];portConstraint=eastwest;" parent="T4Kb6JY-onlQXOTISOH4-32" vertex="1">
          <mxGeometry y="104" width="220" height="26" as="geometry" />
        </mxCell>
        <mxCell id="-8dMRDf63QIHJzTgXih5-13" value="- paymentConditions: string" style="text;strokeColor=none;fillColor=none;align=left;verticalAlign=top;spacingLeft=4;spacingRight=4;overflow=hidden;rotatable=0;points=[[0,0.5],[1,0.5]];portConstraint=eastwest;" parent="T4Kb6JY-onlQXOTISOH4-32" vertex="1">
          <mxGeometry y="130" width="220" height="26" as="geometry" />
        </mxCell>
        <mxCell id="T4Kb6JY-onlQXOTISOH4-35" value="- orderType: string" style="text;strokeColor=none;fillColor=none;align=left;verticalAlign=top;spacingLeft=4;spacingRight=4;overflow=hidden;rotatable=0;points=[[0,0.5],[1,0.5]];portConstraint=eastwest;" parent="T4Kb6JY-onlQXOTISOH4-32" vertex="1">
          <mxGeometry y="156" width="220" height="26" as="geometry" />
        </mxCell>
        <mxCell id="p6ftJrB2vqRsMUstC1pW-12" value="- selfPickup: boolean" style="text;strokeColor=none;fillColor=none;align=left;verticalAlign=top;spacingLeft=4;spacingRight=4;overflow=hidden;rotatable=0;points=[[0,0.5],[1,0.5]];portConstraint=eastwest;" parent="T4Kb6JY-onlQXOTISOH4-32" vertex="1">
          <mxGeometry y="182" width="220" height="26" as="geometry" />
        </mxCell>
        <mxCell id="Irn_uy4zuBTAPK6WRNLf-35" value="Controls" style="endArrow=open;endSize=12;html=1;exitX=0.5;exitY=1;exitDx=0;exitDy=0;entryX=0.5;entryY=0;entryDx=0;entryDy=0;" parent="1" source="Irn_uy4zuBTAPK6WRNLf-13" target="T4Kb6JY-onlQXOTISOH4-25" edge="1">
          <mxGeometry x="-780" y="-1270" width="160" as="geometry">
            <mxPoint x="463" y="-670" as="sourcePoint" />
            <mxPoint x="-77" y="-220" as="targetPoint" />
            <mxPoint as="offset" />
          </mxGeometry>
        </mxCell>
        <mxCell id="Irn_uy4zuBTAPK6WRNLf-37" value="Controls" style="endArrow=open;endSize=12;html=1;exitX=0.5;exitY=1;exitDx=0;exitDy=0;entryX=0.5;entryY=0;entryDx=0;entryDy=0;edgeStyle=elbowEdgeStyle;elbow=vertical;" parent="1" source="Irn_uy4zuBTAPK6WRNLf-9" target="T4Kb6JY-onlQXOTISOH4-32" edge="1">
          <mxGeometry width="160" as="geometry">
            <mxPoint x="113" y="-570" as="sourcePoint" />
            <mxPoint x="108" y="-370" as="targetPoint" />
            <Array as="points">
              <mxPoint x="170" y="-550" />
            </Array>
            <mxPoint x="-11" y="-49" as="offset" />
          </mxGeometry>
        </mxCell>
        <mxCell id="Irn_uy4zuBTAPK6WRNLf-56" value="" style="group" parent="1" vertex="1" connectable="0">
          <mxGeometry x="-302" y="-1158" width="460" height="152" as="geometry" />
        </mxCell>
        <mxCell id="Irn_uy4zuBTAPK6WRNLf-38" value="MainMenu" style="swimlane;fontStyle=0;childLayout=stackLayout;horizontal=1;startSize=26;fillColor=none;horizontalStack=0;resizeParent=1;resizeParentMax=0;resizeLast=0;collapsible=1;marginBottom=0;" parent="Irn_uy4zuBTAPK6WRNLf-56" vertex="1">
          <mxGeometry x="160" width="140" height="52" as="geometry" />
        </mxCell>
        <mxCell id="Irn_uy4zuBTAPK6WRNLf-42" value="OrdersMenu" style="swimlane;fontStyle=0;childLayout=stackLayout;horizontal=1;startSize=26;fillColor=none;horizontalStack=0;resizeParent=1;resizeParentMax=0;resizeLast=0;collapsible=1;marginBottom=0;" parent="Irn_uy4zuBTAPK6WRNLf-56" vertex="1">
          <mxGeometry y="100" width="140" height="52" as="geometry" />
        </mxCell>
        <mxCell id="Irn_uy4zuBTAPK6WRNLf-43" value="ContractsMenu" style="swimlane;fontStyle=0;childLayout=stackLayout;horizontal=1;startSize=26;fillColor=none;horizontalStack=0;resizeParent=1;resizeParentMax=0;resizeLast=0;collapsible=1;marginBottom=0;" parent="Irn_uy4zuBTAPK6WRNLf-56" vertex="1">
          <mxGeometry x="160" y="100" width="140" height="52" as="geometry" />
        </mxCell>
        <mxCell id="Irn_uy4zuBTAPK6WRNLf-44" value="SuppliersMenu" style="swimlane;fontStyle=0;childLayout=stackLayout;horizontal=1;startSize=26;fillColor=none;horizontalStack=0;resizeParent=1;resizeParentMax=0;resizeLast=0;collapsible=1;marginBottom=0;" parent="Irn_uy4zuBTAPK6WRNLf-56" vertex="1">
          <mxGeometry x="320" y="100" width="140" height="52" as="geometry" />
        </mxCell>
        <mxCell id="Irn_uy4zuBTAPK6WRNLf-48" value="subMenu" style="endArrow=open;endSize=12;html=1;exitX=0.25;exitY=1;exitDx=0;exitDy=0;entryX=0.5;entryY=0;entryDx=0;entryDy=0;" parent="Irn_uy4zuBTAPK6WRNLf-56" source="Irn_uy4zuBTAPK6WRNLf-38" target="Irn_uy4zuBTAPK6WRNLf-42" edge="1">
          <mxGeometry x="-0.1561" width="160" relative="1" as="geometry">
            <mxPoint x="90" y="80" as="sourcePoint" />
            <mxPoint x="250" y="80" as="targetPoint" />
            <Array as="points">
              <mxPoint x="195" y="80" />
              <mxPoint x="70" y="80" />
            </Array>
            <mxPoint as="offset" />
          </mxGeometry>
        </mxCell>
        <mxCell id="Irn_uy4zuBTAPK6WRNLf-49" value="subMenu" style="endArrow=open;endSize=12;html=1;exitX=0.75;exitY=1;exitDx=0;exitDy=0;entryX=0.5;entryY=0;entryDx=0;entryDy=0;" parent="Irn_uy4zuBTAPK6WRNLf-56" source="Irn_uy4zuBTAPK6WRNLf-38" target="Irn_uy4zuBTAPK6WRNLf-44" edge="1">
          <mxGeometry x="-0.0405" width="160" relative="1" as="geometry">
            <mxPoint x="90" y="80" as="sourcePoint" />
            <mxPoint x="250" y="80" as="targetPoint" />
            <Array as="points">
              <mxPoint x="265" y="80" />
              <mxPoint x="390" y="80" />
            </Array>
            <mxPoint as="offset" />
          </mxGeometry>
        </mxCell>
        <mxCell id="Irn_uy4zuBTAPK6WRNLf-50" value="subMenu" style="endArrow=open;endSize=12;html=1;exitX=0.5;exitY=1;exitDx=0;exitDy=0;entryX=0.5;entryY=0;entryDx=0;entryDy=0;" parent="Irn_uy4zuBTAPK6WRNLf-56" source="Irn_uy4zuBTAPK6WRNLf-38" target="Irn_uy4zuBTAPK6WRNLf-43" edge="1">
          <mxGeometry width="160" relative="1" as="geometry">
            <mxPoint x="90" y="80" as="sourcePoint" />
            <mxPoint x="250" y="80" as="targetPoint" />
          </mxGeometry>
        </mxCell>
        <mxCell id="p6ftJrB2vqRsMUstC1pW-5" style="edgeStyle=elbowEdgeStyle;rounded=0;orthogonalLoop=1;jettySize=auto;elbow=vertical;html=1;entryX=0.5;entryY=0;entryDx=0;entryDy=0;startArrow=none;" parent="1" source="p6ftJrB2vqRsMUstC1pW-9" target="57GskC2OUnDVnmpbbQjz-41" edge="1">
          <mxGeometry relative="1" as="geometry">
            <Array as="points">
              <mxPoint x="-450" y="-450" />
            </Array>
          </mxGeometry>
        </mxCell>
        <mxCell id="Irn_uy4zuBTAPK6WRNLf-1" value="OrderController" style="swimlane;fontStyle=0;childLayout=stackLayout;horizontal=1;startSize=26;fillColor=none;horizontalStack=0;resizeParent=1;resizeParentMax=0;resizeLast=0;collapsible=1;marginBottom=0;" parent="1" vertex="1">
          <mxGeometry x="-337" y="-670" width="140" height="52" as="geometry" />
        </mxCell>
        <mxCell id="Irn_uy4zuBTAPK6WRNLf-9" value="SupplierController" style="swimlane;fontStyle=0;childLayout=stackLayout;horizontal=1;startSize=26;fillColor=none;horizontalStack=0;resizeParent=1;resizeParentMax=0;resizeLast=0;collapsible=1;marginBottom=0;" parent="1" vertex="1">
          <mxGeometry x="43" y="-670" width="140" height="52" as="geometry" />
        </mxCell>
        <mxCell id="Irn_uy4zuBTAPK6WRNLf-13" value="ContractController" style="swimlane;fontStyle=0;childLayout=stackLayout;horizontal=1;startSize=26;fillColor=none;horizontalStack=0;resizeParent=1;resizeParentMax=0;resizeLast=0;collapsible=1;marginBottom=0;" parent="1" vertex="1">
          <mxGeometry x="-147" y="-670" width="140" height="52" as="geometry" />
        </mxCell>
        <mxCell id="p6ftJrB2vqRsMUstC1pW-22" style="edgeStyle=elbowEdgeStyle;rounded=0;orthogonalLoop=1;jettySize=auto;elbow=vertical;html=1;entryX=1;entryY=0.5;entryDx=0;entryDy=0;" parent="1" source="Irn_uy4zuBTAPK6WRNLf-17" target="p6ftJrB2vqRsMUstC1pW-18" edge="1">
          <mxGeometry relative="1" as="geometry" />
        </mxCell>
        <mxCell id="Irn_uy4zuBTAPK6WRNLf-17" value="Facade" style="swimlane;fontStyle=0;childLayout=stackLayout;horizontal=1;startSize=26;fillColor=none;horizontalStack=0;resizeParent=1;resizeParentMax=0;resizeLast=0;collapsible=1;marginBottom=0;" parent="1" vertex="1">
          <mxGeometry x="-147" y="-830" width="140" height="52" as="geometry" />
        </mxCell>
        <mxCell id="Irn_uy4zuBTAPK6WRNLf-22" value="navigate" style="endArrow=open;endSize=12;html=1;exitX=0.5;exitY=1;exitDx=0;exitDy=0;entryX=0.5;entryY=0;entryDx=0;entryDy=0;" parent="1" source="Irn_uy4zuBTAPK6WRNLf-17" target="Irn_uy4zuBTAPK6WRNLf-13" edge="1">
          <mxGeometry x="-567" y="-940" width="160" as="geometry">
            <mxPoint x="-527" y="-926" as="sourcePoint" />
            <mxPoint x="-367" y="-926" as="targetPoint" />
          </mxGeometry>
        </mxCell>
        <mxCell id="Irn_uy4zuBTAPK6WRNLf-23" value="navigate" style="endArrow=open;endSize=12;html=1;exitX=0.25;exitY=1;exitDx=0;exitDy=0;entryX=0.5;entryY=0;entryDx=0;entryDy=0;" parent="1" source="Irn_uy4zuBTAPK6WRNLf-17" target="Irn_uy4zuBTAPK6WRNLf-1" edge="1">
          <mxGeometry x="-567" y="-940" width="160" as="geometry">
            <mxPoint x="-517" y="-916" as="sourcePoint" />
            <mxPoint x="-357" y="-916" as="targetPoint" />
            <Array as="points">
              <mxPoint x="-112" y="-710" />
              <mxPoint x="-267" y="-710" />
            </Array>
          </mxGeometry>
        </mxCell>
        <mxCell id="Irn_uy4zuBTAPK6WRNLf-26" value="navigate" style="endArrow=open;endSize=12;html=1;exitX=0.75;exitY=1;exitDx=0;exitDy=0;entryX=0.5;entryY=0;entryDx=0;entryDy=0;" parent="1" source="Irn_uy4zuBTAPK6WRNLf-17" target="Irn_uy4zuBTAPK6WRNLf-9" edge="1">
          <mxGeometry x="-567" y="-940" width="160" as="geometry">
            <mxPoint x="-247" y="-690" as="sourcePoint" />
            <mxPoint x="-87" y="-690" as="targetPoint" />
            <Array as="points">
              <mxPoint x="-42" y="-710" />
              <mxPoint x="113" y="-710" />
            </Array>
            <mxPoint as="offset" />
          </mxGeometry>
        </mxCell>
        <mxCell id="Irn_uy4zuBTAPK6WRNLf-72" value="Displays" style="endArrow=open;endSize=12;html=1;exitX=0.5;exitY=1;exitDx=0;exitDy=0;entryX=0.25;entryY=0;entryDx=0;entryDy=0;" parent="1" source="Irn_uy4zuBTAPK6WRNLf-42" target="Irn_uy4zuBTAPK6WRNLf-17" edge="1">
          <mxGeometry x="-780" y="-1270" width="160" as="geometry">
            <mxPoint x="290" y="-1270" as="sourcePoint" />
            <mxPoint x="163" y="-910" as="targetPoint" />
            <Array as="points">
              <mxPoint x="-232" y="-970" />
              <mxPoint x="-112" y="-970" />
            </Array>
            <mxPoint as="offset" />
          </mxGeometry>
        </mxCell>
        <mxCell id="Irn_uy4zuBTAPK6WRNLf-73" value="Displays" style="endArrow=open;endSize=12;html=1;exitX=0.5;exitY=1;exitDx=0;exitDy=0;entryX=0.75;entryY=0;entryDx=0;entryDy=0;" parent="1" source="Irn_uy4zuBTAPK6WRNLf-44" target="Irn_uy4zuBTAPK6WRNLf-17" edge="1">
          <mxGeometry x="-780" y="-1270" width="160" as="geometry">
            <mxPoint x="-222.00000000000023" y="-996" as="sourcePoint" />
            <mxPoint x="173" y="-900" as="targetPoint" />
            <Array as="points">
              <mxPoint x="88" y="-970" />
              <mxPoint x="-42" y="-970" />
            </Array>
            <mxPoint as="offset" />
          </mxGeometry>
        </mxCell>
        <mxCell id="Irn_uy4zuBTAPK6WRNLf-74" value="Displays" style="endArrow=open;endSize=12;html=1;exitX=0.5;exitY=1;exitDx=0;exitDy=0;entryX=0.5;entryY=0;entryDx=0;entryDy=0;" parent="1" source="Irn_uy4zuBTAPK6WRNLf-43" target="Irn_uy4zuBTAPK6WRNLf-17" edge="1">
          <mxGeometry x="-780" y="-1270" width="160" as="geometry">
            <mxPoint x="-212.00000000000023" y="-986" as="sourcePoint" />
            <mxPoint x="183" y="-890" as="targetPoint" />
            <mxPoint as="offset" />
          </mxGeometry>
        </mxCell>
        <mxCell id="Irn_uy4zuBTAPK6WRNLf-81" value="0 ... *" style="text;html=1;strokeColor=none;fillColor=none;align=center;verticalAlign=middle;whiteSpace=wrap;rounded=0;" parent="1" vertex="1">
          <mxGeometry x="-199" y="-32" width="37" height="10" as="geometry" />
        </mxCell>
        <mxCell id="Irn_uy4zuBTAPK6WRNLf-85" value="" style="group" parent="1" vertex="1" connectable="0">
          <mxGeometry x="-199" y="-22" width="99" height="72" as="geometry" />
        </mxCell>
        <mxCell id="Irn_uy4zuBTAPK6WRNLf-83" value="" style="endArrow=diamondThin;endFill=0;endSize=24;html=1;fontColor=#FF3333;exitX=1;exitY=0.5;exitDx=0;exitDy=0;entryX=0;entryY=0.5;entryDx=0;entryDy=0;" parent="Irn_uy4zuBTAPK6WRNLf-85" edge="1">
          <mxGeometry width="160" relative="1" as="geometry">
            <mxPoint x="2" y="8.898876404494382" as="sourcePoint" />
            <mxPoint x="122" y="72" as="targetPoint" />
            <Array as="points">
              <mxPoint x="42" y="8.898876404494382" />
              <mxPoint x="42" y="72" />
            </Array>
          </mxGeometry>
        </mxCell>
        <mxCell id="Irn_uy4zuBTAPK6WRNLf-84" value="0 ... 1" style="text;html=1;strokeColor=none;fillColor=none;align=center;verticalAlign=middle;whiteSpace=wrap;rounded=0;" parent="Irn_uy4zuBTAPK6WRNLf-85" vertex="1">
          <mxGeometry x="69" y="40" width="37" height="23.1" as="geometry" />
        </mxCell>
        <mxCell id="Irn_uy4zuBTAPK6WRNLf-111" value="0 ... 1" style="text;html=1;strokeColor=none;fillColor=none;align=center;verticalAlign=middle;whiteSpace=wrap;rounded=0;" parent="1" vertex="1">
          <mxGeometry x="93" y="8" width="40" height="20" as="geometry" />
        </mxCell>
        <mxCell id="-8dMRDf63QIHJzTgXih5-31" value="" style="endArrow=diamondThin;endFill=0;endSize=24;html=1;fontColor=#FF3333;exitX=0.75;exitY=0;exitDx=0;exitDy=0;entryX=0;entryY=0.5;entryDx=0;entryDy=0;" parent="1" source="57GskC2OUnDVnmpbbQjz-25" target="T4Kb6JY-onlQXOTISOH4-28" edge="1">
          <mxGeometry x="-780" y="-1270" width="160" as="geometry">
            <mxPoint x="-247" y="-130" as="sourcePoint" />
            <mxPoint x="-87" y="-130" as="targetPoint" />
            <Array as="points">
              <mxPoint x="-230" y="-447" />
            </Array>
          </mxGeometry>
        </mxCell>
        <mxCell id="-8dMRDf63QIHJzTgXih5-34" value="" style="endArrow=diamondThin;endFill=1;endSize=24;html=1;fontColor=#FF3333;exitX=0.5;exitY=0;exitDx=0;exitDy=0;entryX=0.45;entryY=1.071;entryDx=0;entryDy=0;entryPerimeter=0;" parent="1" source="T4Kb6JY-onlQXOTISOH4-13" target="p6ftJrB2vqRsMUstC1pW-15" edge="1">
          <mxGeometry x="-780" y="-1270" width="160" as="geometry">
            <mxPoint x="-17" y="10" as="sourcePoint" />
            <mxPoint x="143" y="10" as="targetPoint" />
            <Array as="points">
              <mxPoint x="83" y="10" />
              <mxPoint x="-86" y="10" />
            </Array>
          </mxGeometry>
        </mxCell>
        <mxCell id="Irn_uy4zuBTAPK6WRNLf-363" value="" style="endArrow=diamondThin;endFill=0;endSize=24;html=1;exitX=0.5;exitY=0;exitDx=0;exitDy=0;" parent="1" source="Irn_uy4zuBTAPK6WRNLf-357" target="p6ftJrB2vqRsMUstC1pW-12" edge="1">
          <mxGeometry x="-780" y="-1270" width="160" as="geometry">
            <mxPoint x="570" y="-270" as="sourcePoint" />
            <mxPoint x="230" y="-150" as="targetPoint" />
            <Array as="points" />
          </mxGeometry>
        </mxCell>
        <mxCell id="-8dMRDf63QIHJzTgXih5-37" value="" style="endArrow=diamondThin;endFill=0;endSize=24;html=1;fontColor=#FF3333;entryX=1;entryY=0.5;entryDx=0;entryDy=0;exitX=0.25;exitY=0;exitDx=0;exitDy=0;" parent="1" source="57GskC2OUnDVnmpbbQjz-25" target="57GskC2OUnDVnmpbbQjz-42" edge="1">
          <mxGeometry x="-780" y="-1270" width="160" as="geometry">
            <mxPoint x="-297" y="73.63636363636374" as="sourcePoint" />
            <mxPoint x="-267" y="96.36363636363626" as="targetPoint" />
            <Array as="points">
              <mxPoint x="-302" y="-291" />
            </Array>
          </mxGeometry>
        </mxCell>
        <mxCell id="Irn_uy4zuBTAPK6WRNLf-64" value="Business Layer" style="text;align=center;fontStyle=1;verticalAlign=middle;spacingLeft=3;spacingRight=3;strokeColor=none;rotatable=0;points=[[0,0.5],[1,0.5]];portConstraint=eastwest;fillColor=none;" parent="1" vertex="1">
          <mxGeometry x="-635" y="-940" width="110" height="26" as="geometry" />
        </mxCell>
        <mxCell id="Irn_uy4zuBTAPK6WRNLf-150" value="1" style="text;html=1;strokeColor=none;fillColor=none;align=center;verticalAlign=middle;whiteSpace=wrap;rounded=0;" parent="1" vertex="1">
          <mxGeometry x="-40" y="-776" width="30" height="10" as="geometry" />
        </mxCell>
        <mxCell id="Irn_uy4zuBTAPK6WRNLf-153" value="1" style="text;html=1;strokeColor=none;fillColor=none;align=center;verticalAlign=middle;whiteSpace=wrap;rounded=0;" parent="1" vertex="1">
          <mxGeometry x="-140" y="-776" width="30" height="10" as="geometry" />
        </mxCell>
        <mxCell id="Irn_uy4zuBTAPK6WRNLf-149" value="1" style="text;html=1;strokeColor=none;fillColor=none;align=center;verticalAlign=middle;whiteSpace=wrap;rounded=0;" parent="1" vertex="1">
          <mxGeometry x="-99" y="-776" width="30" height="10" as="geometry" />
        </mxCell>
        <mxCell id="Irn_uy4zuBTAPK6WRNLf-154" value="1" style="text;html=1;strokeColor=none;fillColor=none;align=center;verticalAlign=middle;whiteSpace=wrap;rounded=0;" parent="1" vertex="1">
          <mxGeometry x="110" y="-704" width="30" height="10" as="geometry" />
        </mxCell>
        <mxCell id="Irn_uy4zuBTAPK6WRNLf-155" value="1" style="text;html=1;strokeColor=none;fillColor=none;align=center;verticalAlign=middle;whiteSpace=wrap;rounded=0;" parent="1" vertex="1">
          <mxGeometry x="-80" y="-704" width="30" height="10" as="geometry" />
        </mxCell>
        <mxCell id="Irn_uy4zuBTAPK6WRNLf-156" value="1" style="text;html=1;strokeColor=none;fillColor=none;align=center;verticalAlign=middle;whiteSpace=wrap;rounded=0;" parent="1" vertex="1">
          <mxGeometry x="-270" y="-704" width="30" height="10" as="geometry" />
        </mxCell>
        <mxCell id="Irn_uy4zuBTAPK6WRNLf-160" value="1" style="text;html=1;strokeColor=none;fillColor=none;align=center;verticalAlign=middle;whiteSpace=wrap;rounded=0;" parent="1" vertex="1">
          <mxGeometry x="-40" y="-850" width="30" height="10" as="geometry" />
        </mxCell>
        <mxCell id="Irn_uy4zuBTAPK6WRNLf-161" value="1" style="text;html=1;strokeColor=none;fillColor=none;align=center;verticalAlign=middle;whiteSpace=wrap;rounded=0;" parent="1" vertex="1">
          <mxGeometry x="-80" y="-850" width="30" height="10" as="geometry" />
        </mxCell>
        <mxCell id="Irn_uy4zuBTAPK6WRNLf-162" value="1" style="text;html=1;strokeColor=none;fillColor=none;align=center;verticalAlign=middle;whiteSpace=wrap;rounded=0;" parent="1" vertex="1">
          <mxGeometry x="-140" y="-850" width="30" height="10" as="geometry" />
        </mxCell>
        <mxCell id="Irn_uy4zuBTAPK6WRNLf-333" value="1" style="text;html=1;strokeColor=none;fillColor=none;align=center;verticalAlign=middle;whiteSpace=wrap;rounded=0;" parent="1" vertex="1">
          <mxGeometry x="-80" y="-616" width="30" height="10" as="geometry" />
        </mxCell>
        <mxCell id="Irn_uy4zuBTAPK6WRNLf-334" value="1" style="text;html=1;strokeColor=none;fillColor=none;align=center;verticalAlign=middle;whiteSpace=wrap;rounded=0;" parent="1" vertex="1">
          <mxGeometry x="110" y="-616" width="30" height="10" as="geometry" />
        </mxCell>
        <mxCell id="p6ftJrB2vqRsMUstC1pW-71" style="edgeStyle=elbowEdgeStyle;rounded=0;orthogonalLoop=1;jettySize=auto;elbow=vertical;html=1;exitX=1;exitY=0.25;exitDx=0;exitDy=0;entryX=0.002;entryY=-0.005;entryDx=0;entryDy=0;entryPerimeter=0;" parent="1" source="T4Kb6JY-onlQXOTISOH4-25" target="p6ftJrB2vqRsMUstC1pW-53" edge="1">
          <mxGeometry relative="1" as="geometry">
            <mxPoint x="545" y="-485" as="targetPoint" />
          </mxGeometry>
        </mxCell>
        <mxCell id="T4Kb6JY-onlQXOTISOH4-25" value="Contract" style="swimlane;fontStyle=0;childLayout=stackLayout;horizontal=1;startSize=26;fillColor=none;horizontalStack=0;resizeParent=1;resizeParentMax=0;resizeLast=0;collapsible=1;marginBottom=0;" parent="1" vertex="1">
          <mxGeometry x="-167" y="-513" width="180" height="108" as="geometry" />
        </mxCell>
        <mxCell id="T4Kb6JY-onlQXOTISOH4-26" value="- report: QuantityReport" style="text;strokeColor=none;fillColor=none;align=left;verticalAlign=top;spacingLeft=4;spacingRight=4;overflow=hidden;rotatable=0;points=[[0,0.5],[1,0.5]];portConstraint=eastwest;" parent="T4Kb6JY-onlQXOTISOH4-25" vertex="1">
          <mxGeometry y="26" width="180" height="26" as="geometry" />
        </mxCell>
        <mxCell id="T4Kb6JY-onlQXOTISOH4-28" value="- items: map&lt;int, item&gt;" style="text;strokeColor=none;fillColor=none;align=left;verticalAlign=top;spacingLeft=4;spacingRight=4;overflow=hidden;rotatable=0;points=[[0,0.5],[1,0.5]];portConstraint=eastwest;" parent="T4Kb6JY-onlQXOTISOH4-25" vertex="1">
          <mxGeometry y="52" width="180" height="28" as="geometry" />
        </mxCell>
        <mxCell id="p6ftJrB2vqRsMUstC1pW-15" value="- selfPickup: booolean" style="text;strokeColor=none;fillColor=none;align=left;verticalAlign=top;spacingLeft=4;spacingRight=4;overflow=hidden;rotatable=0;points=[[0,0.5],[1,0.5]];portConstraint=eastwest;" parent="T4Kb6JY-onlQXOTISOH4-25" vertex="1">
          <mxGeometry y="80" width="180" height="28" as="geometry" />
        </mxCell>
        <mxCell id="Irn_uy4zuBTAPK6WRNLf-357" value="ContactPerson" style="swimlane;fontStyle=0;childLayout=stackLayout;horizontal=1;startSize=26;fillColor=none;horizontalStack=0;resizeParent=1;resizeParentMax=0;resizeLast=0;collapsible=1;marginBottom=0;strokeColor=#000000;" parent="1" vertex="1">
          <mxGeometry x="99.25" y="-110" width="261.5" height="78" as="geometry" />
        </mxCell>
        <mxCell id="Irn_uy4zuBTAPK6WRNLf-358" value="- name: string" style="text;strokeColor=none;fillColor=none;align=left;verticalAlign=top;spacingLeft=4;spacingRight=4;overflow=hidden;rotatable=0;points=[[0,0.5],[1,0.5]];portConstraint=eastwest;" parent="Irn_uy4zuBTAPK6WRNLf-357" vertex="1">
          <mxGeometry y="26" width="261.5" height="26" as="geometry" />
        </mxCell>
        <mxCell id="Irn_uy4zuBTAPK6WRNLf-362" value="- conactDetails : map&lt;ContactMethod,string&gt;" style="text;strokeColor=none;fillColor=none;align=left;verticalAlign=top;spacingLeft=4;spacingRight=4;overflow=hidden;rotatable=0;points=[[0,0.5],[1,0.5]];portConstraint=eastwest;" parent="Irn_uy4zuBTAPK6WRNLf-357" vertex="1">
          <mxGeometry y="52" width="261.5" height="26" as="geometry" />
        </mxCell>
        <mxCell id="Irn_uy4zuBTAPK6WRNLf-364" value="1 ... *" style="text;html=1;strokeColor=none;fillColor=none;align=center;verticalAlign=middle;whiteSpace=wrap;rounded=0;" parent="1" vertex="1">
          <mxGeometry x="-600" y="-320" width="40" height="20" as="geometry" />
        </mxCell>
        <mxCell id="Irn_uy4zuBTAPK6WRNLf-365" value="0 ... *" style="text;html=1;strokeColor=none;fillColor=none;align=center;verticalAlign=middle;whiteSpace=wrap;rounded=0;fontColor=#000000;" parent="1" vertex="1">
          <mxGeometry x="184" y="-190" width="40" height="20" as="geometry" />
        </mxCell>
        <mxCell id="Irn_uy4zuBTAPK6WRNLf-87" value="0 ... *" style="text;html=1;strokeColor=none;fillColor=none;align=center;verticalAlign=middle;whiteSpace=wrap;rounded=0;" parent="1" vertex="1">
          <mxGeometry x="-377" y="-320" width="40" height="14.55" as="geometry" />
        </mxCell>
        <mxCell id="Irn_uy4zuBTAPK6WRNLf-89" value="0 ... *" style="text;html=1;strokeColor=none;fillColor=none;align=center;verticalAlign=middle;whiteSpace=wrap;rounded=0;" parent="1" vertex="1">
          <mxGeometry x="-226.5" y="-70" width="40" height="10" as="geometry" />
        </mxCell>
        <mxCell id="-8dMRDf63QIHJzTgXih5-36" value="&lt;font color=&quot;#000000&quot;&gt;discountApply&lt;/font&gt;" style="endArrow=open;endSize=12;html=1;fontColor=#FF3333;exitX=0;exitY=0.5;exitDx=0;exitDy=0;entryX=1;entryY=0.5;entryDx=0;entryDy=0;" parent="1" source="57GskC2OUnDVnmpbbQjz-42" target="T4Kb6JY-onlQXOTISOH4-14" edge="1">
          <mxGeometry x="-0.1584" width="160" relative="1" as="geometry">
            <mxPoint x="-197" y="150" as="sourcePoint" />
            <mxPoint x="-77" y="89.57894736842105" as="targetPoint" />
            <Array as="points">
              <mxPoint x="-600" y="-291" />
              <mxPoint x="-600" y="130" />
              <mxPoint x="300" y="130" />
              <mxPoint x="300" y="67" />
            </Array>
            <mxPoint as="offset" />
          </mxGeometry>
        </mxCell>
        <mxCell id="Irn_uy4zuBTAPK6WRNLf-86" value="1 ... *" style="text;html=1;strokeColor=none;fillColor=none;align=center;verticalAlign=middle;whiteSpace=wrap;rounded=0;" parent="1" vertex="1">
          <mxGeometry x="-350" y="-64.55" width="40" height="4.545454545454545" as="geometry" />
        </mxCell>
        <mxCell id="p6ftJrB2vqRsMUstC1pW-6" value="0 ... *" style="text;html=1;strokeColor=none;fillColor=none;align=center;verticalAlign=middle;whiteSpace=wrap;rounded=0;" parent="1" vertex="1">
          <mxGeometry x="-457" y="-350" width="44" height="20" as="geometry" />
        </mxCell>
        <mxCell id="p6ftJrB2vqRsMUstC1pW-7" value="0 ... *" style="text;html=1;strokeColor=none;fillColor=none;align=center;verticalAlign=middle;whiteSpace=wrap;rounded=0;" parent="1" vertex="1">
          <mxGeometry x="180" y="-430" width="44" height="20" as="geometry" />
        </mxCell>
        <mxCell id="p6ftJrB2vqRsMUstC1pW-10" value="" style="edgeStyle=elbowEdgeStyle;rounded=0;orthogonalLoop=1;jettySize=auto;elbow=vertical;html=1;entryX=0.5;entryY=0;entryDx=0;entryDy=0;endArrow=none;" parent="1" source="Irn_uy4zuBTAPK6WRNLf-1" target="p6ftJrB2vqRsMUstC1pW-9" edge="1">
          <mxGeometry relative="1" as="geometry">
            <mxPoint x="-267" y="-618" as="sourcePoint" />
            <mxPoint x="-449.9999999999998" y="-330" as="targetPoint" />
            <Array as="points">
              <mxPoint x="-290" y="-590" />
              <mxPoint x="-330" y="-540" />
            </Array>
          </mxGeometry>
        </mxCell>
        <mxCell id="p6ftJrB2vqRsMUstC1pW-9" value="Controls" style="text;html=1;strokeColor=none;fillColor=none;align=center;verticalAlign=middle;whiteSpace=wrap;rounded=0;" parent="1" vertex="1">
          <mxGeometry x="-359.9973134328358" y="-539.9953488372093" width="13.731343283582088" height="6.976744186046512" as="geometry" />
        </mxCell>
        <mxCell id="Irn_uy4zuBTAPK6WRNLf-332" value="1" style="text;html=1;strokeColor=none;fillColor=none;align=center;verticalAlign=middle;whiteSpace=wrap;rounded=0;" parent="1" vertex="1">
          <mxGeometry x="-280" y="-610" width="10.3" height="20.93" as="geometry" />
        </mxCell>
        <mxCell id="p6ftJrB2vqRsMUstC1pW-24" style="edgeStyle=elbowEdgeStyle;rounded=0;orthogonalLoop=1;jettySize=auto;elbow=vertical;html=1;exitX=0;exitY=0.5;exitDx=0;exitDy=0;entryX=0.5;entryY=0;entryDx=0;entryDy=0;" parent="1" source="Irn_uy4zuBTAPK6WRNLf-42" target="p6ftJrB2vqRsMUstC1pW-17" edge="1">
          <mxGeometry relative="1" as="geometry">
            <Array as="points">
              <mxPoint x="-360" y="-1032" />
            </Array>
          </mxGeometry>
        </mxCell>
        <mxCell id="p6ftJrB2vqRsMUstC1pW-25" style="edgeStyle=elbowEdgeStyle;rounded=0;orthogonalLoop=1;jettySize=auto;elbow=vertical;html=1;exitX=0.25;exitY=1;exitDx=0;exitDy=0;entryX=0.75;entryY=0;entryDx=0;entryDy=0;" parent="1" source="Irn_uy4zuBTAPK6WRNLf-43" target="p6ftJrB2vqRsMUstC1pW-17" edge="1">
          <mxGeometry relative="1" as="geometry">
            <Array as="points">
              <mxPoint x="-230" y="-990" />
            </Array>
          </mxGeometry>
        </mxCell>
        <mxCell id="p6ftJrB2vqRsMUstC1pW-27" style="edgeStyle=elbowEdgeStyle;rounded=0;orthogonalLoop=1;jettySize=auto;elbow=vertical;html=1;exitX=0.75;exitY=0;exitDx=0;exitDy=0;entryX=0.25;entryY=0;entryDx=0;entryDy=0;" parent="1" source="Irn_uy4zuBTAPK6WRNLf-44" target="p6ftJrB2vqRsMUstC1pW-17" edge="1">
          <mxGeometry relative="1" as="geometry">
            <Array as="points">
              <mxPoint x="-190" y="-1190" />
            </Array>
          </mxGeometry>
        </mxCell>
        <mxCell id="p6ftJrB2vqRsMUstC1pW-29" value="" style="shape=folder;fontStyle=1;spacingTop=10;tabWidth=40;tabHeight=19;tabPosition=left;html=1;fillColor=none;align=left;" parent="1" vertex="1">
          <mxGeometry x="460" y="-980" width="350" height="1140" as="geometry" />
        </mxCell>
        <mxCell id="p6ftJrB2vqRsMUstC1pW-31" value="DTO" style="text;align=center;fontStyle=1;verticalAlign=middle;spacingLeft=3;spacingRight=3;strokeColor=none;rotatable=0;points=[[0,0.5],[1,0.5]];portConstraint=eastwest;fillColor=none;" parent="1" vertex="1">
          <mxGeometry x="440" y="-986" width="80" height="26" as="geometry" />
        </mxCell>
        <mxCell id="p6ftJrB2vqRsMUstC1pW-36" value="SupplierDTO" style="swimlane;fontStyle=0;childLayout=stackLayout;horizontal=1;startSize=26;fillColor=none;horizontalStack=0;resizeParent=1;resizeParentMax=0;resizeLast=0;collapsible=1;marginBottom=0;" parent="1" vertex="1">
          <mxGeometry x="526" y="-940" width="220" height="208" as="geometry" />
        </mxCell>
        <mxCell id="p6ftJrB2vqRsMUstC1pW-37" value="- name: string" style="text;strokeColor=none;fillColor=none;align=left;verticalAlign=top;spacingLeft=4;spacingRight=4;overflow=hidden;rotatable=0;points=[[0,0.5],[1,0.5]];portConstraint=eastwest;" parent="p6ftJrB2vqRsMUstC1pW-36" vertex="1">
          <mxGeometry y="26" width="220" height="26" as="geometry" />
        </mxCell>
        <mxCell id="p6ftJrB2vqRsMUstC1pW-38" value="- manifactur: string" style="text;strokeColor=none;fillColor=none;align=left;verticalAlign=top;spacingLeft=4;spacingRight=4;overflow=hidden;rotatable=0;points=[[0,0.5],[1,0.5]];portConstraint=eastwest;" parent="p6ftJrB2vqRsMUstC1pW-36" vertex="1">
          <mxGeometry y="52" width="220" height="26" as="geometry" />
        </mxCell>
        <mxCell id="p6ftJrB2vqRsMUstC1pW-39" value="- company_id: int" style="text;strokeColor=none;fillColor=none;align=left;verticalAlign=top;spacingLeft=4;spacingRight=4;overflow=hidden;rotatable=0;points=[[0,0.5],[1,0.5]];portConstraint=eastwest;" parent="p6ftJrB2vqRsMUstC1pW-36" vertex="1">
          <mxGeometry y="78" width="220" height="26" as="geometry" />
        </mxCell>
        <mxCell id="p6ftJrB2vqRsMUstC1pW-40" value="- bankAccount: int" style="text;strokeColor=none;fillColor=none;align=left;verticalAlign=top;spacingLeft=4;spacingRight=4;overflow=hidden;rotatable=0;points=[[0,0.5],[1,0.5]];portConstraint=eastwest;" parent="p6ftJrB2vqRsMUstC1pW-36" vertex="1">
          <mxGeometry y="104" width="220" height="26" as="geometry" />
        </mxCell>
        <mxCell id="p6ftJrB2vqRsMUstC1pW-41" value="- paymentConditions: string" style="text;strokeColor=none;fillColor=none;align=left;verticalAlign=top;spacingLeft=4;spacingRight=4;overflow=hidden;rotatable=0;points=[[0,0.5],[1,0.5]];portConstraint=eastwest;" parent="p6ftJrB2vqRsMUstC1pW-36" vertex="1">
          <mxGeometry y="130" width="220" height="26" as="geometry" />
        </mxCell>
        <mxCell id="p6ftJrB2vqRsMUstC1pW-42" value="- orderType: string" style="text;strokeColor=none;fillColor=none;align=left;verticalAlign=top;spacingLeft=4;spacingRight=4;overflow=hidden;rotatable=0;points=[[0,0.5],[1,0.5]];portConstraint=eastwest;" parent="p6ftJrB2vqRsMUstC1pW-36" vertex="1">
          <mxGeometry y="156" width="220" height="26" as="geometry" />
        </mxCell>
        <mxCell id="p6ftJrB2vqRsMUstC1pW-43" value="- selfPickup: boolean" style="text;strokeColor=none;fillColor=none;align=left;verticalAlign=top;spacingLeft=4;spacingRight=4;overflow=hidden;rotatable=0;points=[[0,0.5],[1,0.5]];portConstraint=eastwest;" parent="p6ftJrB2vqRsMUstC1pW-36" vertex="1">
          <mxGeometry y="182" width="220" height="26" as="geometry" />
        </mxCell>
        <mxCell id="p6ftJrB2vqRsMUstC1pW-44" value="ContactDTO" style="swimlane;fontStyle=0;childLayout=stackLayout;horizontal=1;startSize=26;fillColor=none;horizontalStack=0;resizeParent=1;resizeParentMax=0;resizeLast=0;collapsible=1;marginBottom=0;strokeColor=#000000;" parent="1" vertex="1">
          <mxGeometry x="504.25" y="-683" width="261.5" height="78" as="geometry" />
        </mxCell>
        <mxCell id="p6ftJrB2vqRsMUstC1pW-45" value="- name: string" style="text;strokeColor=none;fillColor=none;align=left;verticalAlign=top;spacingLeft=4;spacingRight=4;overflow=hidden;rotatable=0;points=[[0,0.5],[1,0.5]];portConstraint=eastwest;" parent="p6ftJrB2vqRsMUstC1pW-44" vertex="1">
          <mxGeometry y="26" width="261.5" height="26" as="geometry" />
        </mxCell>
        <mxCell id="p6ftJrB2vqRsMUstC1pW-46" value="- conactDetails : map&lt;ContactMethod,string&gt;" style="text;strokeColor=none;fillColor=none;align=left;verticalAlign=top;spacingLeft=4;spacingRight=4;overflow=hidden;rotatable=0;points=[[0,0.5],[1,0.5]];portConstraint=eastwest;" parent="p6ftJrB2vqRsMUstC1pW-44" vertex="1">
          <mxGeometry y="52" width="261.5" height="26" as="geometry" />
        </mxCell>
        <mxCell id="p6ftJrB2vqRsMUstC1pW-47" value="" style="endArrow=diamondThin;endFill=0;endSize=24;html=1;exitX=0.5;exitY=0;exitDx=0;exitDy=0;" parent="1" source="p6ftJrB2vqRsMUstC1pW-44" target="p6ftJrB2vqRsMUstC1pW-43" edge="1">
          <mxGeometry x="-379.96000000000004" y="-1788" width="160" as="geometry">
            <mxPoint x="630.04" y="-627.9999999999995" as="sourcePoint" />
            <mxPoint x="630.04" y="-715.0000000000005" as="targetPoint" />
            <Array as="points" />
          </mxGeometry>
        </mxCell>
        <mxCell id="p6ftJrB2vqRsMUstC1pW-49" value="0 ... *" style="text;html=1;strokeColor=none;fillColor=none;align=center;verticalAlign=middle;whiteSpace=wrap;rounded=0;" parent="1" vertex="1">
          <mxGeometry x="640" y="-704" width="44" height="20" as="geometry" />
        </mxCell>
        <mxCell id="p6ftJrB2vqRsMUstC1pW-51" value="ContractDTO" style="swimlane;fontStyle=0;childLayout=stackLayout;horizontal=1;startSize=26;fillColor=none;horizontalStack=0;resizeParent=1;resizeParentMax=0;resizeLast=0;collapsible=1;marginBottom=0;" parent="1" vertex="1">
          <mxGeometry x="545" y="-513" width="180" height="82" as="geometry" />
        </mxCell>
        <mxCell id="p6ftJrB2vqRsMUstC1pW-53" value="- items: map&lt;int, item&gt;" style="text;strokeColor=none;fillColor=none;align=left;verticalAlign=top;spacingLeft=4;spacingRight=4;overflow=hidden;rotatable=0;points=[[0,0.5],[1,0.5]];portConstraint=eastwest;" parent="p6ftJrB2vqRsMUstC1pW-51" vertex="1">
          <mxGeometry y="26" width="180" height="28" as="geometry" />
        </mxCell>
        <mxCell id="p6ftJrB2vqRsMUstC1pW-54" value="- selfPickup: booolean" style="text;strokeColor=none;fillColor=none;align=left;verticalAlign=top;spacingLeft=4;spacingRight=4;overflow=hidden;rotatable=0;points=[[0,0.5],[1,0.5]];portConstraint=eastwest;" parent="p6ftJrB2vqRsMUstC1pW-51" vertex="1">
          <mxGeometry y="54" width="180" height="28" as="geometry" />
        </mxCell>
        <mxCell id="p6ftJrB2vqRsMUstC1pW-55" value="QuantityReportDTO" style="swimlane;fontStyle=0;childLayout=stackLayout;horizontal=1;startSize=26;fillColor=none;horizontalStack=0;resizeParent=1;resizeParentMax=0;resizeLast=0;collapsible=1;marginBottom=0;" parent="1" vertex="1">
          <mxGeometry x="470" y="-350" width="235" height="52" as="geometry" />
        </mxCell>
        <mxCell id="p6ftJrB2vqRsMUstC1pW-56" value="- Discounts: map&lt;int, map&lt;int, double&gt;&gt;" style="text;strokeColor=none;fillColor=none;align=left;verticalAlign=top;spacingLeft=4;spacingRight=4;overflow=hidden;rotatable=0;points=[[0,0.5],[1,0.5]];portConstraint=eastwest;" parent="p6ftJrB2vqRsMUstC1pW-55" vertex="1">
          <mxGeometry y="26" width="235" height="26" as="geometry" />
        </mxCell>
        <mxCell id="p6ftJrB2vqRsMUstC1pW-57" value="ItemDTO" style="swimlane;fontStyle=0;childLayout=stackLayout;horizontal=1;startSize=26;fillColor=none;horizontalStack=0;resizeParent=1;resizeParentMax=0;resizeLast=0;collapsible=1;marginBottom=0;" parent="1" vertex="1">
          <mxGeometry x="660" y="-260" width="140" height="104" as="geometry" />
        </mxCell>
        <mxCell id="p6ftJrB2vqRsMUstC1pW-58" value="- id: int" style="text;strokeColor=none;fillColor=none;align=left;verticalAlign=top;spacingLeft=4;spacingRight=4;overflow=hidden;rotatable=0;points=[[0,0.5],[1,0.5]];portConstraint=eastwest;" parent="p6ftJrB2vqRsMUstC1pW-57" vertex="1">
          <mxGeometry y="26" width="140" height="26" as="geometry" />
        </mxCell>
        <mxCell id="p6ftJrB2vqRsMUstC1pW-59" value="- name: string" style="text;strokeColor=none;fillColor=none;align=left;verticalAlign=top;spacingLeft=4;spacingRight=4;overflow=hidden;rotatable=0;points=[[0,0.5],[1,0.5]];portConstraint=eastwest;" parent="p6ftJrB2vqRsMUstC1pW-57" vertex="1">
          <mxGeometry y="52" width="140" height="26" as="geometry" />
        </mxCell>
        <mxCell id="p6ftJrB2vqRsMUstC1pW-60" value="- price: double" style="text;strokeColor=none;fillColor=none;align=left;verticalAlign=top;spacingLeft=4;spacingRight=4;overflow=hidden;rotatable=0;points=[[0,0.5],[1,0.5]];portConstraint=eastwest;" parent="p6ftJrB2vqRsMUstC1pW-57" vertex="1">
          <mxGeometry y="78" width="140" height="26" as="geometry" />
        </mxCell>
        <mxCell id="p6ftJrB2vqRsMUstC1pW-61" value="" style="endArrow=diamondThin;endFill=0;endSize=24;html=1;fontColor=#FF3333;entryX=0;entryY=0.5;entryDx=0;entryDy=0;edgeStyle=elbowEdgeStyle;" parent="1" source="p6ftJrB2vqRsMUstC1pW-55" target="p6ftJrB2vqRsMUstC1pW-54" edge="1">
          <mxGeometry x="-22" y="-1083" width="160" as="geometry">
            <mxPoint x="526" y="136.99999999999955" as="sourcePoint" />
            <mxPoint x="591" y="-260" as="targetPoint" />
            <Array as="points">
              <mxPoint x="500" y="-400" />
            </Array>
          </mxGeometry>
        </mxCell>
        <mxCell id="p6ftJrB2vqRsMUstC1pW-62" value="0 ... *" style="text;html=1;strokeColor=none;fillColor=none;align=center;verticalAlign=middle;whiteSpace=wrap;rounded=0;" parent="1" vertex="1">
          <mxGeometry x="505" y="-370" width="40" height="10" as="geometry" />
        </mxCell>
        <mxCell id="p6ftJrB2vqRsMUstC1pW-63" value="" style="endArrow=diamondThin;endFill=1;endSize=24;html=1;fontColor=#FF3333;exitX=0.75;exitY=0;exitDx=0;exitDy=0;edgeStyle=elbowEdgeStyle;elbow=vertical;entryX=1;entryY=0.5;entryDx=0;entryDy=0;" parent="1" source="p6ftJrB2vqRsMUstC1pW-57" target="p6ftJrB2vqRsMUstC1pW-53" edge="1">
          <mxGeometry x="-117" y="-1180.99" width="160" as="geometry">
            <mxPoint x="746" y="117.01" as="sourcePoint" />
            <mxPoint x="577" y="-314.0019999999997" as="targetPoint" />
            <Array as="points">
              <mxPoint x="760" y="-473" />
            </Array>
          </mxGeometry>
        </mxCell>
        <mxCell id="p6ftJrB2vqRsMUstC1pW-64" value="0 ... 1" style="text;html=1;strokeColor=none;fillColor=none;align=center;verticalAlign=middle;whiteSpace=wrap;rounded=0;" parent="1" vertex="1">
          <mxGeometry x="765.75" y="-290" width="40" height="20" as="geometry" />
        </mxCell>
        <mxCell id="p6ftJrB2vqRsMUstC1pW-66" value="" style="endArrow=diamondThin;endFill=0;endSize=24;html=1;fontColor=#FF3333;entryX=1;entryY=0.5;entryDx=0;entryDy=0;" parent="1" target="p6ftJrB2vqRsMUstC1pW-56" edge="1">
          <mxGeometry x="560" y="-190" width="160" as="geometry">
            <mxPoint x="740" y="-261" as="sourcePoint" />
            <mxPoint x="682" y="-118" as="targetPoint" />
            <Array as="points">
              <mxPoint x="740" y="-311" />
            </Array>
          </mxGeometry>
        </mxCell>
        <mxCell id="p6ftJrB2vqRsMUstC1pW-68" value="0 ... 1" style="text;html=1;strokeColor=none;fillColor=none;align=center;verticalAlign=middle;whiteSpace=wrap;rounded=0;" parent="1" vertex="1">
          <mxGeometry x="710" y="-340" width="37" height="23.1" as="geometry" />
        </mxCell>
        <mxCell id="p6ftJrB2vqRsMUstC1pW-69" value="0 ... *" style="text;html=1;strokeColor=none;fillColor=none;align=center;verticalAlign=middle;whiteSpace=wrap;rounded=0;" parent="1" vertex="1">
          <mxGeometry x="700" y="-278" width="37" height="10" as="geometry" />
        </mxCell>
        <mxCell id="AIavqgSetf2zbh8c5ljh-4" value="Order" style="swimlane;fontStyle=0;childLayout=stackLayout;horizontal=1;startSize=26;fillColor=none;horizontalStack=0;resizeParent=1;resizeParentMax=0;resizeLast=0;collapsible=1;marginBottom=0;" parent="1" vertex="1">
          <mxGeometry x="526" y="-80" width="170" height="130" as="geometry" />
        </mxCell>
        <mxCell id="AIavqgSetf2zbh8c5ljh-5" value="- id: int" style="text;strokeColor=none;fillColor=none;align=left;verticalAlign=top;spacingLeft=4;spacingRight=4;overflow=hidden;rotatable=0;points=[[0,0.5],[1,0.5]];portConstraint=eastwest;" parent="AIavqgSetf2zbh8c5ljh-4" vertex="1">
          <mxGeometry y="26" width="170" height="26" as="geometry" />
        </mxCell>
        <mxCell id="AIavqgSetf2zbh8c5ljh-6" value="- status:Status" style="text;strokeColor=none;fillColor=none;align=left;verticalAlign=top;spacingLeft=4;spacingRight=4;overflow=hidden;rotatable=0;points=[[0,0.5],[1,0.5]];portConstraint=eastwest;" parent="AIavqgSetf2zbh8c5ljh-4" vertex="1">
          <mxGeometry y="52" width="170" height="26" as="geometry" />
        </mxCell>
        <mxCell id="AIavqgSetf2zbh8c5ljh-7" value="- placementDate: LocalDate" style="text;strokeColor=none;fillColor=none;align=left;verticalAlign=top;spacingLeft=4;spacingRight=4;overflow=hidden;rotatable=0;points=[[0,0.5],[1,0.5]];portConstraint=eastwest;" parent="AIavqgSetf2zbh8c5ljh-4" vertex="1">
          <mxGeometry y="78" width="170" height="26" as="geometry" />
        </mxCell>
        <mxCell id="AIavqgSetf2zbh8c5ljh-8" value="- dueDate: LocalDate" style="text;strokeColor=none;fillColor=none;align=left;verticalAlign=top;spacingLeft=4;spacingRight=4;overflow=hidden;rotatable=0;points=[[0,0.5],[1,0.5]];portConstraint=eastwest;" parent="AIavqgSetf2zbh8c5ljh-4" vertex="1">
          <mxGeometry y="104" width="170" height="26" as="geometry" />
        </mxCell>
        <mxCell id="AIavqgSetf2zbh8c5ljh-9" value="" style="endArrow=diamondThin;endFill=0;endSize=24;html=1;fontColor=#FF3333;exitX=0;exitY=0.5;exitDx=0;exitDy=0;edgeStyle=elbowEdgeStyle;elbow=vertical;" parent="1" source="p6ftJrB2vqRsMUstC1pW-60" target="AIavqgSetf2zbh8c5ljh-4" edge="1">
          <mxGeometry x="247" y="-1099" width="160" as="geometry">
            <mxPoint x="725" y="120.99999999999955" as="sourcePoint" />
            <mxPoint x="647.0000000000002" y="-120" as="targetPoint" />
            <Array as="points">
              <mxPoint x="630" y="-169" />
            </Array>
          </mxGeometry>
        </mxCell>
        <mxCell id="AIavqgSetf2zbh8c5ljh-10" value="0 ... *" style="text;html=1;strokeColor=none;fillColor=none;align=center;verticalAlign=middle;whiteSpace=wrap;rounded=0;" parent="1" vertex="1">
          <mxGeometry x="580" y="-100" width="40" height="14.55" as="geometry" />
        </mxCell>
        <mxCell id="AIavqgSetf2zbh8c5ljh-11" value="1 ... *" style="text;html=1;strokeColor=none;fillColor=none;align=center;verticalAlign=middle;whiteSpace=wrap;rounded=0;" parent="1" vertex="1">
          <mxGeometry x="616" y="-200" width="40" height="30" as="geometry" />
        </mxCell>
        <mxCell id="AIavqgSetf2zbh8c5ljh-12" style="rounded=0;orthogonalLoop=1;jettySize=auto;html=1;exitX=0;exitY=0.5;exitDx=0;exitDy=0;entryX=1;entryY=0.5;entryDx=0;entryDy=0;elbow=vertical;startArrow=none;" parent="1" source="AIavqgSetf2zbh8c5ljh-13" target="AIavqgSetf2zbh8c5ljh-8" edge="1">
          <mxGeometry relative="1" as="geometry">
            <Array as="points">
              <mxPoint x="750" y="190" />
              <mxPoint x="750" y="37" />
            </Array>
          </mxGeometry>
        </mxCell>
        <mxCell id="AIavqgSetf2zbh8c5ljh-13" value="Text" style="text;html=1;strokeColor=none;fillColor=none;align=center;verticalAlign=middle;whiteSpace=wrap;rounded=0;" parent="1" vertex="1">
          <mxGeometry x="30" y="180" width="40" height="20" as="geometry" />
        </mxCell>
        <mxCell id="AIavqgSetf2zbh8c5ljh-15" value="" style="rounded=0;orthogonalLoop=1;jettySize=auto;html=1;exitX=0;exitY=0.5;exitDx=0;exitDy=0;entryX=1;entryY=0.5;entryDx=0;entryDy=0;elbow=vertical;endArrow=none;" parent="1" source="AIavqgSetf2zbh8c5ljh-3" target="AIavqgSetf2zbh8c5ljh-13" edge="1">
          <mxGeometry relative="1" as="geometry">
            <mxPoint x="-550" y="-213" as="sourcePoint" />
            <mxPoint x="696" y="37" as="targetPoint" />
            <Array as="points">
              <mxPoint x="-570" y="-213" />
              <mxPoint x="-570" y="190" />
            </Array>
          </mxGeometry>
        </mxCell>
        <mxCell id="AIavqgSetf2zbh8c5ljh-16" value="uses" style="edgeLabel;html=1;align=center;verticalAlign=middle;resizable=0;points=[];" parent="AIavqgSetf2zbh8c5ljh-15" vertex="1" connectable="0">
          <mxGeometry x="0.9629" y="1" relative="1" as="geometry">
            <mxPoint as="offset" />
          </mxGeometry>
        </mxCell>
        <mxCell id="AIavqgSetf2zbh8c5ljh-17" value="uses" style="edgeLabel;html=1;align=center;verticalAlign=middle;resizable=0;points=[];" parent="AIavqgSetf2zbh8c5ljh-15" vertex="1" connectable="0">
          <mxGeometry x="0.9629" y="1" relative="1" as="geometry">
            <mxPoint x="230" y="-799" as="offset" />
          </mxGeometry>
        </mxCell>
        <mxCell id="AIavqgSetf2zbh8c5ljh-18" value="uses" style="edgeLabel;html=1;align=center;verticalAlign=middle;resizable=0;points=[];" parent="AIavqgSetf2zbh8c5ljh-15" vertex="1" connectable="0">
          <mxGeometry x="0.9629" y="1" relative="1" as="geometry">
            <mxPoint x="280" y="-679" as="offset" />
          </mxGeometry>
        </mxCell>
        <mxCell id="AIavqgSetf2zbh8c5ljh-21" value="" style="group" parent="1" vertex="1" connectable="0">
          <mxGeometry x="424.25" y="-1230" width="381.5" height="230" as="geometry" />
        </mxCell>
        <mxCell id="AIavqgSetf2zbh8c5ljh-19" value="" style="shape=folder;fontStyle=1;spacingTop=10;tabWidth=60;tabHeight=20;tabPosition=left;html=1;fillColor=none;" parent="AIavqgSetf2zbh8c5ljh-21" vertex="1">
          <mxGeometry x="11.5" width="370" height="230" as="geometry" />
        </mxCell>
        <mxCell id="AIavqgSetf2zbh8c5ljh-20" value="enums" style="text;align=center;fontStyle=1;verticalAlign=middle;spacingLeft=3;spacingRight=3;strokeColor=none;rotatable=0;points=[[0,0.5],[1,0.5]];portConstraint=eastwest;fillColor=none;" parent="AIavqgSetf2zbh8c5ljh-21" vertex="1">
          <mxGeometry width="80" height="26" as="geometry" />
        </mxCell>
        <mxCell id="AIavqgSetf2zbh8c5ljh-22" value="&lt;p style=&quot;margin: 0px ; margin-top: 4px ; text-align: center&quot;&gt;&lt;b&gt;ContactMethod&lt;/b&gt;&lt;/p&gt;&lt;hr size=&quot;1&quot;&gt;&lt;div style=&quot;height: 2px&quot;&gt;&amp;nbsp;EMAIL&lt;/div&gt;&lt;div style=&quot;height: 2px&quot;&gt;&lt;br&gt;&lt;/div&gt;&lt;div style=&quot;height: 2px&quot;&gt;&lt;br&gt;&lt;/div&gt;&lt;div style=&quot;height: 2px&quot;&gt;&lt;br&gt;&lt;/div&gt;&lt;div style=&quot;height: 2px&quot;&gt;&lt;br&gt;&lt;/div&gt;&lt;div style=&quot;height: 2px&quot;&gt;&lt;br&gt;&lt;/div&gt;&lt;div style=&quot;height: 2px&quot;&gt;&lt;br&gt;&lt;/div&gt;&lt;div style=&quot;height: 2px&quot;&gt;&lt;br&gt;&lt;/div&gt;&lt;div style=&quot;height: 2px&quot;&gt;&amp;nbsp;Fax&lt;/div&gt;&lt;div style=&quot;height: 2px&quot;&gt;&lt;br&gt;&lt;/div&gt;&lt;div style=&quot;height: 2px&quot;&gt;&lt;br&gt;&lt;/div&gt;&lt;div style=&quot;height: 2px&quot;&gt;&lt;br&gt;&lt;/div&gt;&lt;div style=&quot;height: 2px&quot;&gt;&lt;br&gt;&lt;/div&gt;&lt;div style=&quot;height: 2px&quot;&gt;&lt;br&gt;&lt;/div&gt;&lt;div style=&quot;height: 2px&quot;&gt;&lt;br&gt;&lt;/div&gt;&lt;div style=&quot;height: 2px&quot;&gt;&lt;br&gt;&lt;/div&gt;&lt;div style=&quot;height: 2px&quot;&gt;&amp;nbsp;Phone&lt;/div&gt;&lt;div style=&quot;height: 2px&quot;&gt;&lt;br&gt;&lt;/div&gt;&lt;div style=&quot;height: 2px&quot;&gt;&lt;br&gt;&lt;/div&gt;&lt;div style=&quot;height: 2px&quot;&gt;&lt;br&gt;&lt;/div&gt;&lt;div style=&quot;height: 2px&quot;&gt;&lt;br&gt;&lt;/div&gt;&lt;div style=&quot;height: 2px&quot;&gt;&lt;br&gt;&lt;/div&gt;&lt;div style=&quot;height: 2px&quot;&gt;&lt;br&gt;&lt;/div&gt;&lt;div style=&quot;height: 2px&quot;&gt;&amp;nbsp;Mobile&lt;/div&gt;" style="verticalAlign=top;align=left;overflow=fill;fontSize=12;fontFamily=Helvetica;html=1;fillColor=none;" parent="AIavqgSetf2zbh8c5ljh-21" vertex="1">
          <mxGeometry x="215.75" y="50" width="104.25" height="100" as="geometry" />
        </mxCell>
        <mxCell id="AIavqgSetf2zbh8c5ljh-23" value="&lt;p style=&quot;margin: 0px ; margin-top: 4px ; text-align: center&quot;&gt;&lt;b&gt;Status&lt;/b&gt;&lt;/p&gt;&lt;hr size=&quot;1&quot;&gt;&lt;div style=&quot;height: 2px&quot;&gt;&amp;nbsp;Canceled&lt;/div&gt;&lt;div style=&quot;height: 2px&quot;&gt;&lt;br&gt;&lt;/div&gt;&lt;div style=&quot;height: 2px&quot;&gt;&lt;br&gt;&lt;/div&gt;&lt;div style=&quot;height: 2px&quot;&gt;&lt;br&gt;&lt;/div&gt;&lt;div style=&quot;height: 2px&quot;&gt;&lt;br&gt;&lt;/div&gt;&lt;div style=&quot;height: 2px&quot;&gt;&lt;br&gt;&lt;/div&gt;&lt;div style=&quot;height: 2px&quot;&gt;&lt;br&gt;&lt;/div&gt;&lt;div style=&quot;height: 2px&quot;&gt;&lt;br&gt;&lt;/div&gt;&lt;div style=&quot;height: 2px&quot;&gt;&amp;nbsp;Active&lt;/div&gt;&lt;div style=&quot;height: 2px&quot;&gt;&lt;br&gt;&lt;/div&gt;&lt;div style=&quot;height: 2px&quot;&gt;&lt;br&gt;&lt;/div&gt;&lt;div style=&quot;height: 2px&quot;&gt;&lt;br&gt;&lt;/div&gt;&lt;div style=&quot;height: 2px&quot;&gt;&lt;br&gt;&lt;/div&gt;&lt;div style=&quot;height: 2px&quot;&gt;&lt;br&gt;&lt;/div&gt;&lt;div style=&quot;height: 2px&quot;&gt;&lt;br&gt;&lt;/div&gt;&lt;div style=&quot;height: 2px&quot;&gt;&lt;br&gt;&lt;/div&gt;&lt;div style=&quot;height: 2px&quot;&gt;&amp;nbsp;Completed&lt;/div&gt;&lt;div style=&quot;height: 2px&quot;&gt;&lt;br&gt;&lt;/div&gt;&lt;div style=&quot;height: 2px&quot;&gt;&lt;br&gt;&lt;/div&gt;&lt;div style=&quot;height: 2px&quot;&gt;&lt;br&gt;&lt;/div&gt;&lt;div style=&quot;height: 2px&quot;&gt;&lt;br&gt;&lt;/div&gt;&lt;div style=&quot;height: 2px&quot;&gt;&lt;br&gt;&lt;/div&gt;&lt;div style=&quot;height: 2px&quot;&gt;&lt;br&gt;&lt;/div&gt;&lt;div style=&quot;height: 2px&quot;&gt;&amp;nbsp;inPrepared&lt;/div&gt;" style="verticalAlign=top;align=left;overflow=fill;fontSize=12;fontFamily=Helvetica;html=1;fillColor=none;" parent="AIavqgSetf2zbh8c5ljh-21" vertex="1">
          <mxGeometry x="35.75" y="50" width="104.25" height="100" as="geometry" />
        </mxCell>
        <mxCell id="AIavqgSetf2zbh8c5ljh-25" value="Use as value" style="endArrow=open;endSize=12;dashed=1;html=1;exitX=0.25;exitY=0;exitDx=0;exitDy=0;entryX=0.25;entryY=0;entryDx=0;entryDy=0;" parent="1" source="57GskC2OUnDVnmpbbQjz-41" target="AIavqgSetf2zbh8c5ljh-23" edge="1">
          <mxGeometry width="160" relative="1" as="geometry">
            <mxPoint x="-510" as="sourcePoint" />
            <mxPoint x="-350" as="targetPoint" />
            <Array as="points">
              <mxPoint x="-507" y="-560" />
              <mxPoint x="-690" y="-560" />
              <mxPoint x="-690" y="-1320" />
              <mxPoint x="-290" y="-1320" />
              <mxPoint x="486" y="-1320" />
            </Array>
          </mxGeometry>
        </mxCell>
        <mxCell id="AIavqgSetf2zbh8c5ljh-26" value="Use as value" style="endArrow=none;endSize=12;dashed=1;html=1;exitX=0.75;exitY=0;exitDx=0;exitDy=0;entryX=1;entryY=0.5;entryDx=0;entryDy=0;startArrow=open;startFill=0;endFill=0;" parent="1" source="AIavqgSetf2zbh8c5ljh-23" target="AIavqgSetf2zbh8c5ljh-6" edge="1">
          <mxGeometry width="160" relative="1" as="geometry">
            <mxPoint x="-497.5" y="-320" as="sourcePoint" />
            <mxPoint x="496.0625" y="-1170" as="targetPoint" />
            <Array as="points">
              <mxPoint x="538" y="-1240" />
              <mxPoint x="890" y="-1240" />
              <mxPoint x="890" y="-15" />
            </Array>
          </mxGeometry>
        </mxCell>
        <mxCell id="AIavqgSetf2zbh8c5ljh-27" value="Use as value" style="endArrow=open;endSize=12;dashed=1;html=1;exitX=1;exitY=0.5;exitDx=0;exitDy=0;entryX=1;entryY=0.5;entryDx=0;entryDy=0;" parent="1" source="p6ftJrB2vqRsMUstC1pW-46" target="AIavqgSetf2zbh8c5ljh-22" edge="1">
          <mxGeometry width="160" relative="1" as="geometry">
            <mxPoint x="548.1875" y="-1170" as="sourcePoint" />
            <mxPoint x="706" y="-5" as="targetPoint" />
            <Array as="points">
              <mxPoint x="860" y="-618" />
              <mxPoint x="860" y="-1130" />
            </Array>
          </mxGeometry>
        </mxCell>
        <mxCell id="AIavqgSetf2zbh8c5ljh-28" value="Use as value" style="endArrow=open;endSize=12;dashed=1;html=1;exitX=1;exitY=0.5;exitDx=0;exitDy=0;entryX=0.5;entryY=1;entryDx=0;entryDy=0;" parent="1" source="Irn_uy4zuBTAPK6WRNLf-358" target="AIavqgSetf2zbh8c5ljh-22" edge="1">
          <mxGeometry width="160" relative="1" as="geometry">
            <mxPoint x="775.7500000000005" y="-608" as="sourcePoint" />
            <mxPoint x="754.25" y="-1120" as="targetPoint" />
            <Array as="points">
              <mxPoint x="450" y="-71" />
              <mxPoint x="450" y="-1030" />
              <mxPoint x="690" y="-1030" />
            </Array>
          </mxGeometry>
        </mxCell>
      </root>
    </mxGraphModel>
  </diagram>
</mxfile>
